# xmcd
#
# Track frame offsets:
#	150
#	13321
#	24803
#	35343
#	44418
#	51420
#	59097
#	69640
#	78473
#	86355
#	94824
#	112348
#	121455
#
# Disc length: 1802 seconds
#
# Revision: 1
# Processed by: cddbd v1.5.2PL0 Copyright (c) Steve Scherf et al.
# Submitted via: audiograbber 1.83.01
#
DISCID=b507080d
DTITLE=Young Fresh Fellows - I Don't Think This Is
DYEAR=2009
DGENRE=Americana
TTITLE0=Suck Machine Crater
TTITLE1=Betty Let The Good Times Crawl
TTITLE2=Never Turning Back Again
TTITLE3=New Day I Hate
TTITLE4=Go Blue Angels Go
TTITLE5=Gotta Get Away
TTITLE6=The Guilty Ones
TTITLE7=The Final Tractor
TTITLE8=After Suicide
TTITLE9=Lay You In The Ground
TTITLE10=If You Believe In Cleveland
TTITLE11=Lamp Industries
TTITLE12=Shake Your Magazines
EXTD=
EXTT0=
EXTT1=
EXTT2=
EXTT3=
EXTT4=
EXTT5=
EXTT6=
EXTT7=
EXTT8=
EXTT9=
EXTT10=
EXTT11=
EXTT12=
PLAYORDER=
